<svg width="200" height="200" fill="none" xmlns="http://www.w3.org/2000/svg"><path d="M100 178.667l-67-36.742v-83.21l67 36.742v83.21zm0 0l67-36.742v-83.21l-67 36.742v83.21zM33 58.715L100 21l67 37.715" stroke="#0072BA" stroke-miterlimit="10"/><path d="M100 70.17c12.473 0 22.585-6.242 22.585-13.94 0-7.7-10.112-13.941-22.585-13.941-12.474 0-22.586 6.241-22.586 13.94 0 7.7 10.112 13.94 22.585 13.94z" stroke="#0072BA" stroke-miterlimit="10"/><path d="M100 151.218c12.473 0 22.585-6.241 22.585-13.94S112.473 123.337 100 123.337c-12.474 0-22.586 6.242-22.586 13.941 0 7.699 10.112 13.94 22.585 13.94z" stroke="#1D1D1B" stroke-miterlimit="10" stroke-dasharray="2 2"/><path d="M74.5 71.5L125 41M74.5 152.5L125 122M77 41.039l50.321 30.794M77 122.039l50.321 30.794" stroke="#1D1D1B" stroke-dasharray="2 2"/><path d="M33 142.141l67-37.715 67 37.715" stroke="#1D1D1B" stroke-miterlimit="10" stroke-dasharray="2 2"/></svg>