<svg width="200" height="200" fill="none" xmlns="http://www.w3.org/2000/svg"><path d="M148.216 71.357v7.265L122.907 92.68l-8.816-5.189-21.233 12.077-33.083-19.72v-7.264" stroke="#1D1D1B" stroke-miterlimit="10" stroke-dasharray="2 2"/><path d="M62.524 70.791l-2.749 1.793 33.083 19.719 21.233-12.077 8.816 5.095 25.309-13.964-14.219-7.642" stroke="#1D1D1B" stroke-miterlimit="10" stroke-linejoin="round" stroke-dasharray="2 2"/><path d="M93.236 104.945v54.816L61.86 141.835V87.018m31.376 17.926v54.817l44.363-24.248V84.568" stroke="#1D1D1B" stroke-miterlimit="10" stroke-dasharray="2 2"/><path d="M119.779 90.698l-26.542 14.813-31.376-18.492 5.024-3.02" stroke="#1D1D1B" stroke-miterlimit="10" stroke-linejoin="round" stroke-dasharray="2 2"/><path d="M91.245 77.677V87.96l-31.47-18.87V58.147" stroke="#1D1D1B" stroke-miterlimit="10" stroke-linecap="round" stroke-linejoin="round" stroke-dasharray="2 2"/><path d="M91.244 77.677v10.284l44.363-25.19v-6.794" stroke="#1D1D1B" stroke-miterlimit="10" stroke-linecap="round" stroke-linejoin="round" stroke-dasharray="2 2"/><path d="M129.542 52.58l6.067 3.397-21.802 11.982-5.688-.283-16.873 10-31.47-19.53 44.362-24.813 8.815 5.189" stroke="#1D1D1B" stroke-miterlimit="10" stroke-linejoin="round" stroke-dasharray="2 2"/><path d="M108.119 67.675l-19.527-12.17 19.148-12.738" stroke="#1D1D1B" stroke-miterlimit="10" stroke-dasharray="2 2"/><path d="M90.772 56.543l25.783-20.945 19.432 11.51-24.456 20.569" stroke="#1D1D1B" stroke-miterlimit="10" stroke-dasharray="2 2"/><path d="M98.148 169.943v11.532l-61.699-36.114V54.138m61.699 37.088v90.247l65.561-35.845V54.613" stroke="#0072BA" stroke-miterlimit="10"/><path d="M98.148 91.031L36 54.292 100.213 18l63.495 36.292-65.56 36.74z" stroke="#0072BA" stroke-miterlimit="10"/></svg>