<svg width="200" height="200" fill="none" xmlns="http://www.w3.org/2000/svg"><path d="M105.387 129.439v26.805c0 .214-.214.534-.534.748-.641.427-1.71.427-2.458 0-.32-.214-.534-.427-.534-.748v-28.62m53.844-25.524v26.912c0 .214-.213.534-.534.748-.641.427-1.709.427-2.457 0-.321-.214-.534-.428-.534-.748v-24.883m-65.383 14.524v27.019c0 .213-.214.534-.534.747-.641.427-1.71.427-2.457 0-.32-.213-.534-.427-.534-.747v-28.621" stroke="#1D1D1B" stroke-miterlimit="10" stroke-dasharray="2 2"/><path d="M138.077 87.043l21.795 12.601-52.135 31.077-27.457-15.912 29.38-16.767" stroke="#1D1D1B" stroke-miterlimit="10" stroke-dasharray="2 2"/><path d="M131.775 103.382l5.128-2.99c.641-.32 1.068-1.175 1.068-1.816V79.888c0-.641-.427-.961-1.068-.641l-24.786 14.31c-.641.32-1.068 1.175-1.068 1.816v18.688c0 .641.427.962 1.068.641l13.889-7.902m.748 6.513l5.876-3.417s0 .854-.641 1.281l-5.769 3.417c.534-.427.534-1.281.534-1.281z" stroke="#1D1D1B" stroke-miterlimit="10" stroke-dasharray="2 2"/><path d="M132.63 109.896s0 .854-.641 1.281c-1.923 1.175-3.846 2.243-5.769 3.417m.533-1.28l-1.816-15.806 5.769-3.417 1.923 15.805" stroke="#1D1D1B" stroke-miterlimit="10" stroke-dasharray="2 2"/><path d="M124.937 97.508l1.816 15.805s0 2.35-2.564.855l-4.701-2.67" stroke="#1D1D1B" stroke-miterlimit="10" stroke-dasharray="2 2"/><path d="M20 126.507v7.352l80 45.015 80-45.015v-7.352" stroke="#0072BA" stroke-miterlimit="10"/><path d="M20 118.897v7.352l6.064 3.354 80.001-45.015v-7.352" stroke="#0072BA" stroke-miterlimit="10"/><path d="M20 124.573v-60.88l6.064 3.354 80.001-43.08v53.27m0 7.351L180 126.507l-80 45.015-80-45.015" stroke="#0072BA" stroke-miterlimit="10"/><path d="M20 63.693L99.355 21l6.71 2.967M26.064 67.046v62.556m0-10.06l80-44.498m-80 35.727l80-44.498m-80 35.727l80-44.498M38.839 94.907v8.513m11.742-5.805v8.642m9.031-22.829v8.642m11.614-5.805v8.642M50.581 79.17v8.642M71.226 67.82v8.513m7.872-4.257v8.513m-40.259 32.118v9.802m20.773-21.154v9.416m19.486-20.766v9.803m11.741-24.893v8.512m7.612-21.153v8.513M26.064 92.456l45.162-24.635M100 178.874v-7.352m20.645-11.737l-73.806-41.661m95.225 29.667l-73.806-41.533m93.032 30.181L87.355 94.907" stroke="#0072BA" stroke-miterlimit="10"/></svg>