<svg width="200" height="200" fill="none" xmlns="http://www.w3.org/2000/svg"><path d="M100 119.41v56.711l-71-38.849v-56.71m71 38.848v56.711l71-38.849v-56.71" stroke="#0072BA" stroke-miterlimit="10"/><path d="M100 120.453l35.426-52.99L171 80.562 70.826 24 29 80.562m106.425-13.099L70.825 24" stroke="#0072BA" stroke-miterlimit="10"/><path d="M63.383 135.188l-15.48-8.335m24.858 13.991l58.795 33.49m-62.813-39.741V116.88" stroke="#1D1D1B" stroke-miterlimit="10" stroke-dasharray="2 2"/><path d="M68.742 140.994a2.977 2.977 0 100-5.954 2.977 2.977 0 000 5.954z" stroke="#1D1D1B" stroke-miterlimit="10"/><path d="M80.202 116.582L59.96 104.674m58.495 34.533l-28.727-16.968m-4.168-6.252V61.212" stroke="#1D1D1B" stroke-miterlimit="10" stroke-dasharray="2 2"/><path d="M85.56 122.387a2.977 2.977 0 100-5.954 2.977 2.977 0 000 5.954z" stroke="#1D1D1B" stroke-miterlimit="10"/><path d="M119.649 121.197l-26.643-15.629" stroke="#1D1D1B" stroke-miterlimit="10" stroke-dasharray="3 3"/><path d="M162.369 146.352l-33.193-19.498m-4.02-6.253V99.762" stroke="#1D1D1B" stroke-miterlimit="10" stroke-dasharray="2 2"/><path d="M125.156 127.001a2.977 2.977 0 100-5.954 2.977 2.977 0 000 5.954z" stroke="#1D1D1B" stroke-miterlimit="10"/></svg>