<svg width="200" height="200" fill="none" xmlns="http://www.w3.org/2000/svg"><path d="M109.975 169.943l-58.47-32.913 87.327-45.267 58.47 29.423-87.327 48.757z" stroke="#0072BA" stroke-miterlimit="10" stroke-linejoin="round"/><path d="M113.297 124.333l-7.301-3.951 7.87-3.682 7.396 3.502-7.965 4.131z" stroke="#1D1D1B" stroke-miterlimit="10" stroke-dasharray="2 2"/><path d="M51.506 70.502l87.233-42.934m0 64.195l-87.233 44.984v-71.04l87.233-42.91v68.966z" stroke="#0072BA" stroke-miterlimit="10"/><path d="M109.315 170.037v9.43l87.799-48.933v-9.431" stroke="#0072BA" stroke-miterlimit="10" stroke-linejoin="round"/><path d="M51.613 146.277l-.108-9.53" stroke="#0072BA" stroke-miterlimit="10"/><path d="M196.548 130.899l-87.233 48.568-57.702-33.19" stroke="#0072BA" stroke-miterlimit="10" stroke-linejoin="round"/><path d="M167.314 137.879v4.715l-31.31 17.352v-4.715" stroke="#0072BA" stroke-miterlimit="10"/><path d="M136.051 155.341l-10.495-6.201 30.832-17.174 10.495 6.296" stroke="#0072BA" stroke-miterlimit="10"/><path d="M109.677 122.631l-55.918 28.497a13.997 13.997 0 01-13.014-.158l-16.372-8.85c-2.137-1.155-2.087-4.237.085-5.323l117.432-58.66a10 10 0 005.532-8.946V50.383c0-2.979-3.14-4.912-5.8-3.572L39.8 98.109c-3.99 2.011-8.7-.89-8.7-5.358v-36.7" stroke="#1D1D1B" stroke-miterlimit="10" stroke-dasharray="2 2"/><path d="M47.514 30c-2.975-5.363-8.565-9-15.016-9-7.598 0-14.048 5.033-16.342 12.049-.86-.22-1.72-.33-2.652-.33C7.16 32.718 2 38.007 2 44.51c0 6.502 5.16 11.792 11.504 11.792h33.831c7.095 0 12.865-5.914 12.865-13.188 0-7.2-5.662-13.04-12.686-13.114z" stroke="#1D1D1B" stroke-miterlimit="10" stroke-dasharray="2 2"/></svg>