<svg width="169" height="50" fill="none" xmlns="http://www.w3.org/2000/svg"><path d="M64.7 31.162h.528v3.961l2.817-3.96h.528v4.753h-.528v-3.962l-2.817 3.962H64.7v-4.754zm5.108 1.32h.528v1.496h2.024v-1.496h.529v3.521h-.529v-1.496h-2.024v1.496h-.528v-3.52zM75 33.891l-1.32-1.496h.616l1.76 2.024v-2.024h.529v2.024l1.76-2.024h.617l-1.32 1.496 1.407 2.025h-.616l-1.144-1.584-.704.792v.88h-.528v-.88l-.705-.793-1.144 1.673h-.616L75 33.891zm4.314.264c0-1.056.704-1.848 1.673-1.848 1.056 0 1.672.792 1.672 1.848v.176H79.93c.088.705.616 1.145 1.232 1.145.44 0 .793-.176 1.145-.528l.352.264c-.352.352-.792.616-1.408.616-1.145.176-1.937-.528-1.937-1.673zm2.817-.176c-.088-.616-.44-1.144-1.144-1.144-.617 0-1.057.528-1.145 1.144h2.289zm1.408-1.497h.528v1.496h2.024v-1.496h.529v3.521h-.529v-1.496h-2.024v1.496h-.528v-3.52zm4.049 1.673c0-1.056.704-1.848 1.672-1.848 1.057 0 1.673.792 1.673 1.848v.176h-2.729c.088.705.616 1.145 1.233 1.145.44 0 .792-.176 1.144-.528l.352.264c-.352.352-.792.616-1.409.616-1.144.176-1.936-.528-1.936-1.673zm2.729-.176c-.088-.616-.44-1.144-1.145-1.144-.616 0-1.056.528-1.144 1.144h2.289zm1.497-1.496h.528v.704c.264-.44.704-.792 1.32-.792.88 0 1.673.704 1.673 1.848 0 1.145-.792 1.85-1.672 1.85-.617 0-1.057-.353-1.32-.705v1.76h-.529v-4.665zm2.993 1.673c0-.793-.528-1.321-1.233-1.321-.616 0-1.232.528-1.232 1.32 0 .793.616 1.32 1.233 1.32.616.089 1.232-.44 1.232-1.32zm1.497-1.674h.528v1.496h2.025v-1.496h.528v3.521h-.529v-1.496h-2.024v1.496h-.528v-3.52zm3.961 1.673c0-.968.792-1.848 1.848-1.848 1.057 0 1.849.792 1.849 1.848 0 .969-.792 1.849-1.849 1.849-1.056 0-1.848-.792-1.848-1.849zm3.081 0c0-.792-.529-1.408-1.321-1.408-.792 0-1.32.616-1.32 1.408 0 .793.528 1.32 1.32 1.32.792.089 1.321-.527 1.321-1.32zm1.321-.528h1.848v.528h-1.848v-.528zm2.728.528c0-.968.792-1.848 1.76-1.848.704 0 1.056.264 1.409.616l-.353.352c-.264-.264-.616-.528-1.056-.528-.704 0-1.232.616-1.232 1.408 0 .793.528 1.32 1.32 1.32.44 0 .792-.263 1.056-.527l.353.352c-.353.352-.793.704-1.409.704-1.056 0-1.848-.792-1.848-1.849zm4.929-1.233h-1.232v-.44h2.993v.44h-1.233v2.993h-.528v-2.993zm2.552-.439h.529v.704c.264-.44.704-.792 1.32-.792.88 0 1.673.704 1.673 1.848 0 1.145-.793 1.85-1.673 1.85-.616 0-1.056-.353-1.32-.705v1.76h-.529v-4.665zm2.993 1.673c0-.793-.528-1.321-1.232-1.321-.616 0-1.232.528-1.232 1.32 0 .793.616 1.32 1.232 1.32.616.089 1.232-.44 1.232-1.32zm1.234-.001c0-.968.792-1.848 1.849-1.848 1.056 0 1.848.792 1.848 1.848 0 .969-.792 1.849-1.848 1.849-1.057 0-1.849-.792-1.849-1.849zm3.081 0c0-.792-.528-1.408-1.32-1.408-.793 0-1.321.616-1.321 1.408 0 .793.528 1.32 1.321 1.32.792.089 1.32-.527 1.32-1.32zm1.495-1.673h.528v2.729l2.113-2.729h.528v3.521h-.528v-2.729l-2.113 2.73h-.528v-3.522zm5.106.44h-1.232v-.44h2.993v.44h-1.233v2.993h-.528v-2.993zm2.202 1.233c0-1.056.705-1.848 1.673-1.848 1.056 0 1.672.792 1.672 1.848v.176h-2.729c.089.705.617 1.145 1.233 1.145.44 0 .792-.176 1.144-.528l.352.264c-.352.352-.792.616-1.408.616-1.144.176-1.937-.528-1.937-1.673zm2.729-.176c-.088-.616-.44-1.144-1.144-1.144-.616 0-1.057.528-1.145 1.144h2.289zm.879 1.936l.088-.44c.088 0 .176.088.264.088.44 0 .793-.176.793-2.817v-.264h2.464v3.521h-.528V33.01h-1.496v.088c0 2.73-.528 2.993-1.145 2.993-.088-.088-.352-.088-.44-.176zm4.754-3.433h.528v1.32h.969c.792 0 1.408.353 1.408 1.057s-.528 1.144-1.32 1.144h-1.497v-3.52h-.088zm1.409 2.993c.528 0 .88-.264.88-.704 0-.44-.352-.616-.88-.616h-.969v1.32h.969zm2.199-2.993h.528v1.496h2.025v-1.496h.528v3.521h-.528v-1.496h-2.025v1.496h-.528v-3.52zm3.962 2.465c0-.792.617-1.145 1.497-1.145.44 0 .792.089 1.056.176v-.087c0-.617-.352-.969-1.056-.969-.44 0-.704.088-1.056.264l-.176-.44c.352-.176.792-.264 1.232-.264.528 0 .88.176 1.144.352.264.264.352.616.352 1.056v2.113h-.528v-.528c-.264.352-.616.616-1.232.616-.616-.088-1.233-.44-1.233-1.144zm2.553-.264v-.352a3.282 3.282 0 00-1.056-.176c-.616 0-1.056.264-1.056.704 0 .44.44.704.88.704.704 0 1.232-.352 1.232-.88zm2.377-.088c-.528-.088-.968-.528-.968-1.057 0-.616.528-1.056 1.32-1.056h1.672v3.521h-.528v-1.232h-.968c-.352.44-.616.88-.968 1.232h-.617l1.057-1.408zm1.496-.352v-1.32h-1.056c-.528 0-.792.263-.792.615 0 .44.352.705.88.705h.968zm-88.732 5.106h.528v2.024l1.937-2.024h.616l-1.496 1.496 1.496 1.937h-.616l-1.232-1.585-.705.88v.88h-.528V39.35zm3.434 1.761c0-.97.792-1.85 1.849-1.85 1.056 0 1.848.793 1.848 1.85 0 .967-.792 1.848-1.849 1.848-1.144 0-1.848-.793-1.848-1.849zm3.08 0c0-.793-.527-1.41-1.32-1.41-.792 0-1.32.617-1.32 1.41 0 .791.528 1.32 1.32 1.32.793.087 1.32-.529 1.32-1.32zm1.497-1.761h.44l1.32 1.848 1.32-1.849h.529v3.522h-.528v-2.641l-1.32 1.76-1.321-1.76v2.64h-.528v-3.52h.088zm4.754 0h2.993v3.52h-.529v-2.992h-2.024v2.993h-.528v-3.521h.088zm3.872 2.464c0-.792.617-1.144 1.497-1.144.44 0 .792.088 1.056.176v-.088c0-.616-.352-.968-1.056-.968-.44 0-.704.088-1.056.264l-.088-.44c.352-.176.792-.264 1.232-.264.528 0 .88.176 1.144.352.264.264.353.616.353 1.056v2.113h-.529v-.528c-.264.352-.616.616-1.232.616s-1.32-.352-1.32-1.145zm2.641-.176v-.352a3.284 3.284 0 00-1.056-.176c-.616 0-1.056.264-1.056.704 0 .44.44.704.88.704.704 0 1.232-.352 1.232-.88zm1.585-2.288h.528v1.496h2.025v-1.496h.528v3.52h-.528v-1.496h-2.025v1.497h-.528v-3.521zm4.225 0h.528v2.728l2.113-2.728h.528v3.52h-.528v-2.728l-2.113 2.729h-.528v-3.521zm5.017 2.201c-.528-.088-.968-.528-.968-1.056 0-.616.528-1.056 1.32-1.056h1.673v3.52h-.529v-1.232h-.968c-.352.44-.616.88-.968 1.233h-.616l1.056-1.409zm1.496-.352v-1.32H95.07c-.528 0-.792.264-.792.616 0 .44.352.704.88.704h1.056zM64.613 7.307h2.993v18.046h-2.993V7.307zm6.954.087h3.17v2.817h-3.17V7.394zm.088 4.841h2.993v13.029h-2.993V12.235zm6.866.001h2.993v2.025c.88-1.232 2.025-2.289 4.05-2.289 2.904 0 4.665 1.937 4.665 5.018v8.275h-2.993V17.87c0-2.025-1.057-3.169-2.817-3.169-1.76 0-2.905 1.232-2.905 3.257v7.395H78.52V12.235zm15.316-4.929h2.993v10.739l5.37-5.81h3.609l-5.194 5.282 5.37 7.746h-3.433l-3.961-5.633-1.849 1.936v3.697h-2.993V7.307h.088zm13.381 8.978h7.306v2.905h-7.306v-2.905zm11.268 5.457v-6.866h-1.673v-2.553h1.673V8.714h2.993v3.61H125v2.552h-3.521v6.426c0 1.144.616 1.672 1.584 1.672.705 0 1.233-.176 1.849-.44V25c-.704.44-1.584.704-2.729.704-2.201-.176-3.697-1.144-3.697-3.96zm8.363-2.903c0-3.698 2.64-6.779 6.338-6.779 4.137 0 6.25 3.258 6.25 7.043 0 .176 0 .704-.088.88h-9.595c.352 2.113 1.848 3.345 3.785 3.345 1.496 0 2.465-.528 3.521-1.584l1.76 1.584c-1.232 1.497-2.904 2.465-5.369 2.465-3.697-.176-6.602-2.905-6.602-6.954zm9.683-.969c-.176-1.936-1.321-3.433-3.345-3.433-1.849 0-3.081 1.409-3.345 3.433h6.69zm5.281.969c0-3.698 2.905-6.779 6.779-6.779 2.464 0 3.961.88 5.193 2.29l-1.848 2.024c-.881-.968-1.849-1.673-3.345-1.673-2.201 0-3.786 1.849-3.786 4.226 0 2.376 1.585 4.225 3.874 4.225 1.408 0 2.464-.704 3.345-1.673l1.76 1.761c-1.32 1.408-2.817 2.465-5.369 2.465-3.786-.088-6.603-3.17-6.603-6.866zm14.789-11.532h2.993v7.042c.88-1.232 2.024-2.289 4.049-2.289 2.905 0 4.665 1.937 4.665 5.018v8.274h-2.993v-7.394c0-2.025-1.056-3.169-2.817-3.169-1.76 0-2.904 1.232-2.904 3.257v7.394h-2.993V7.307z" fill="#1D1D1B"/><path d="M12.324 0L0 7.132l12.324 7.13V28.61l12.412-7.218V7.13L12.324.001z" fill="#0072BA"/><path d="M12.324 0L0 7.132l12.324 7.13 12.412-7.13L12.324.001z" fill="#00B8ED"/><path d="M24.735 21.392L12.412 28.61l12.323 7.13V50l12.412-7.13V28.61l-12.412-7.218z" fill="#0072BA"/><path d="M24.736 21.391L12.324 28.61l12.412 7.13 12.412-7.13-12.412-7.218z" fill="#00B8ED"/><path d="M37.147 0L24.735 7.13l12.412 7.13v14.35l12.324-7.218V7.13L37.147 0z" fill="#0072BA"/><path d="M37.147 0L24.735 7.13l12.412 7.13L49.47 7.13 37.147 0z" fill="#00B8ED"/></svg>