<svg width="200" height="200" viewBox="0 0 200 200" fill="none" xmlns="http://www.w3.org/2000/svg">
<path d="M109.975 169.943L51.5049 137.03L138.832 91.7629L197.302 121.186L109.975 169.943Z" stroke="#0072BA" stroke-miterlimit="10" stroke-linejoin="round"/>
<path d="M113.297 124.333L105.996 120.382L113.866 116.7L121.262 120.202L113.297 124.333Z" stroke="#1D1D1B" stroke-miterlimit="10" stroke-dasharray="2 2"/>
<path d="M51.5059 70.5024L138.739 27.5678M138.739 91.7635L51.5059 136.747V65.7065L138.739 22.7972V91.7635Z" stroke="#0072BA" stroke-miterlimit="10"/>
<path d="M109.315 170.037V179.467L197.114 130.534V121.103" stroke="#0072BA" stroke-miterlimit="10" stroke-linejoin="round"/>
<path d="M51.6129 146.277L51.5049 136.747" stroke="#0072BA" stroke-miterlimit="10"/>
<path d="M196.548 130.899L109.315 179.467L51.6133 146.277" stroke="#0072BA" stroke-miterlimit="10" stroke-linejoin="round"/>
<path d="M167.314 137.879V142.594L136.004 159.946V155.231" stroke="#0072BA" stroke-miterlimit="10"/>
<path d="M136.051 155.341L125.556 149.14L156.388 131.966L166.883 138.262" stroke="#0072BA" stroke-miterlimit="10"/>
<path d="M109.677 122.631L53.759 151.128C49.6587 153.218 44.7933 153.159 40.7448 150.97L24.3725 142.12C22.2359 140.965 22.2856 137.883 24.4584 136.797L141.89 78.1373C145.28 76.4441 147.422 72.9804 147.422 69.1913V50.3831C147.422 47.4043 144.282 45.4706 141.622 46.8109L39.8002 98.1093C35.8098 100.12 31.1007 97.2192 31.1007 92.7509V56.0511" stroke="#1D1D1B" stroke-miterlimit="10" stroke-dasharray="2 2"/>
<path d="M47.5137 29.9999C44.5392 24.6367 38.9486 21 32.4978 21C24.9002 21 18.4495 26.0326 16.1558 33.0489C15.2957 32.8285 14.4356 32.7183 13.5039 32.7183C7.16061 32.7183 2 38.008 2 44.51C2 51.012 7.16061 56.3018 13.5039 56.3018C16.8009 56.3018 28.484 56.3018 32.4978 56.3018C35.4006 56.3018 44.8259 56.3018 47.3345 56.3018C54.4304 56.3018 60.2002 50.3875 60.2002 43.1141C60.2002 35.9142 54.5379 30.0734 47.5137 29.9999Z" stroke="#1D1D1B" stroke-miterlimit="10" stroke-dasharray="2 2"/>
</svg>
