<svg width="200" height="200" viewBox="0 0 200 200" fill="none" xmlns="http://www.w3.org/2000/svg">
<path d="M105.387 129.439V132.323V156.244C105.387 156.458 105.173 156.778 104.853 156.992C104.212 157.419 103.143 157.419 102.395 156.992C102.075 156.778 101.861 156.565 101.861 156.244V127.624" stroke="#1D1D1B" stroke-miterlimit="10" stroke-dasharray="2 2"/>
<path d="M155.705 102.1V129.012C155.705 129.226 155.492 129.546 155.171 129.76C154.53 130.187 153.462 130.187 152.714 129.76C152.393 129.546 152.18 129.332 152.18 129.012V104.129" stroke="#1D1D1B" stroke-miterlimit="10" stroke-dasharray="2 2"/>
<path d="M86.797 118.653V145.672C86.797 145.885 86.5833 146.206 86.2628 146.419C85.6218 146.846 84.5535 146.846 83.8057 146.419C83.4852 146.206 83.2715 145.992 83.2715 145.672V117.051" stroke="#1D1D1B" stroke-miterlimit="10" stroke-dasharray="2 2"/>
<path d="M138.077 87.0425L159.872 99.644L107.737 130.721L80.2803 114.809L109.66 98.0421" stroke="#1D1D1B" stroke-miterlimit="10" stroke-dasharray="2 2"/>
<path d="M131.775 103.382L136.903 100.392C137.544 100.072 137.971 99.2172 137.971 98.5765C137.971 98.5765 137.971 98.2561 137.971 79.8878C137.971 79.247 137.544 78.9266 136.903 79.247L112.117 93.5572C111.476 93.8776 111.049 94.7319 111.049 95.3727V114.061C111.049 114.702 111.476 115.023 112.117 114.702L126.006 106.8" stroke="#1D1D1B" stroke-miterlimit="10" stroke-dasharray="2 2"/>
<path d="M126.754 113.313L132.63 109.896C132.63 109.896 132.63 110.75 131.989 111.177L126.22 114.594C126.754 114.167 126.754 113.313 126.754 113.313Z" stroke="#1D1D1B" stroke-miterlimit="10" stroke-dasharray="2 2"/>
<path d="M132.63 109.896C132.63 109.896 132.63 110.75 131.989 111.177C130.066 112.352 128.143 113.42 126.22 114.594" stroke="#1D1D1B" stroke-miterlimit="10" stroke-dasharray="2 2"/>
<path d="M126.753 113.314L124.937 97.5083L130.706 94.0909L132.629 109.896" stroke="#1D1D1B" stroke-miterlimit="10" stroke-dasharray="2 2"/>
<path d="M124.937 97.5082L126.753 113.313C126.753 113.313 126.753 115.663 124.189 114.168L119.488 111.498" stroke="#1D1D1B" stroke-miterlimit="10" stroke-dasharray="2 2"/>
<path d="M20 126.507V133.859L100 178.874L180 133.859V126.507" stroke="#0072BA" stroke-miterlimit="10"/>
<path d="M20 118.897V126.249L26.0645 129.603L106.065 84.5881V77.2361" stroke="#0072BA" stroke-miterlimit="10"/>
<path d="M20 124.573V63.6934L26.0645 67.0469L106.065 23.9668V77.2365" stroke="#0072BA" stroke-miterlimit="10"/>
<path d="M106.065 84.588L180 126.507L100 171.522L20 126.507" stroke="#0072BA" stroke-miterlimit="10"/>
<path d="M20 63.6932L99.3549 21L106.065 23.9666" stroke="#0072BA" stroke-miterlimit="10"/>
<path d="M26.0645 67.046V129.602" stroke="#0072BA" stroke-miterlimit="10"/>
<path d="M26.0645 119.542L106.064 75.0436" stroke="#0072BA" stroke-miterlimit="10"/>
<path d="M26.0645 110.771L106.064 66.2726" stroke="#0072BA" stroke-miterlimit="10"/>
<path d="M26.0645 102L106.064 57.5016" stroke="#0072BA" stroke-miterlimit="10"/>
<path d="M38.8389 94.9069V103.42" stroke="#0072BA" stroke-miterlimit="10"/>
<path d="M50.5811 97.615V106.257" stroke="#0072BA" stroke-miterlimit="10"/>
<path d="M59.6123 83.4277V92.0695" stroke="#0072BA" stroke-miterlimit="10"/>
<path d="M71.2256 86.2648V94.9066" stroke="#0072BA" stroke-miterlimit="10"/>
<path d="M50.5811 79.1707V87.8125" stroke="#0072BA" stroke-miterlimit="10"/>
<path d="M71.2256 67.8206V76.3334" stroke="#0072BA" stroke-miterlimit="10"/>
<path d="M79.0977 72.0765V80.5894" stroke="#0072BA" stroke-miterlimit="10"/>
<path d="M38.8389 112.707V122.509" stroke="#0072BA" stroke-miterlimit="10"/>
<path d="M59.6123 101.355V110.771" stroke="#0072BA" stroke-miterlimit="10"/>
<path d="M79.0977 90.0052V99.8079" stroke="#0072BA" stroke-miterlimit="10"/>
<path d="M90.8389 74.9147V83.4275" stroke="#0072BA" stroke-miterlimit="10"/>
<path d="M98.4512 62.2743V70.7871" stroke="#0072BA" stroke-miterlimit="10"/>
<path d="M26.0645 92.4562L71.2257 67.8206" stroke="#0072BA" stroke-miterlimit="10"/>
<path d="M100 178.874V171.522" stroke="#0072BA" stroke-miterlimit="10"/>
<path d="M120.645 159.785L46.8389 118.124" stroke="#0072BA" stroke-miterlimit="10"/>
<path d="M142.064 147.791L68.2578 106.258" stroke="#0072BA" stroke-miterlimit="10"/>
<path d="M161.29 136.439L87.3545 94.9071" stroke="#0072BA" stroke-miterlimit="10"/>
</svg>
