<svg width="200" height="200" viewBox="0 0 200 200" fill="none" xmlns="http://www.w3.org/2000/svg">
<path d="M100 178.667L33 141.925V58.715L100 95.4569V178.667Z" stroke="#0072BA" stroke-miterlimit="10"/>
<path d="M100 178.667L167 141.925V58.715L100 95.4569V178.667Z" stroke="#0072BA" stroke-miterlimit="10"/>
<path d="M33 58.7145L100 21L167 58.7145" stroke="#0072BA" stroke-miterlimit="10"/>
<path d="M99.9995 70.1696C112.473 70.1696 122.585 63.9283 122.585 56.2293C122.585 48.5302 112.473 42.2889 99.9995 42.2889C87.5259 42.2889 77.4141 48.5302 77.4141 56.2293C77.4141 63.9283 87.5259 70.1696 99.9995 70.1696Z" stroke="#0072BA" stroke-miterlimit="10"/>
<path d="M99.9995 151.218C112.473 151.218 122.585 144.977 122.585 137.278C122.585 129.579 112.473 123.337 99.9995 123.337C87.5259 123.337 77.4141 129.579 77.4141 137.278C77.4141 144.977 87.5259 151.218 99.9995 151.218Z" stroke="#1D1D1B" stroke-miterlimit="10" stroke-dasharray="2 2"/>
<path d="M74.5 71.5005L125 41.0005" stroke="#1D1D1B" stroke-dasharray="2 2"/>
<path d="M74.5 152.5L125 122" stroke="#1D1D1B" stroke-dasharray="2 2"/>
<path d="M77 41.039L127.321 71.8331" stroke="#1D1D1B" stroke-dasharray="2 2"/>
<path d="M77 122.039L127.321 152.833" stroke="#1D1D1B" stroke-dasharray="2 2"/>
<path d="M33 142.141L100 104.426L167 142.141" stroke="#1D1D1B" stroke-miterlimit="10" stroke-dasharray="2 2"/>
</svg>
