<svg width="200" height="200" viewBox="0 0 200 200" fill="none" xmlns="http://www.w3.org/2000/svg">
<path d="M148.216 71.3574V78.6223L122.907 92.6803L114.091 87.4911L92.8576 99.5677L59.7754 79.8488V72.584" stroke="#1D1D1B" stroke-miterlimit="10" stroke-dasharray="2 2"/>
<path d="M62.5243 70.7911L59.7754 72.5838L92.8576 92.3027L114.091 80.226L122.907 85.3208L148.216 71.3572L133.997 63.715" stroke="#1D1D1B" stroke-miterlimit="10" stroke-linejoin="round" stroke-dasharray="2 2"/>
<path d="M93.2363 104.945V159.761L61.8604 141.835V87.0184" stroke="#1D1D1B" stroke-miterlimit="10" stroke-dasharray="2 2"/>
<path d="M93.2363 104.944V159.761L137.599 135.513V84.5685" stroke="#1D1D1B" stroke-miterlimit="10" stroke-dasharray="2 2"/>
<path d="M119.779 90.6983L93.2373 105.511L61.8613 87.0187L66.8853 83.9995" stroke="#1D1D1B" stroke-miterlimit="10" stroke-linejoin="round" stroke-dasharray="2 2"/>
<path d="M91.2452 77.6768V87.9608L59.7744 69.0911V58.1466" stroke="#1D1D1B" stroke-miterlimit="10" stroke-linecap="round" stroke-linejoin="round" stroke-dasharray="2 2"/>
<path d="M91.2441 77.6774V87.9614L135.607 62.7703V55.9772" stroke="#1D1D1B" stroke-miterlimit="10" stroke-linecap="round" stroke-linejoin="round" stroke-dasharray="2 2"/>
<path d="M129.542 52.5799L135.609 55.9765L113.807 67.9588L108.119 67.6757L91.2462 77.6767L59.7754 58.1465L104.138 33.3328L112.953 38.5219" stroke="#1D1D1B" stroke-miterlimit="10" stroke-linejoin="round" stroke-dasharray="2 2"/>
<path d="M108.119 67.6754L88.5918 55.5044L107.74 42.7673" stroke="#1D1D1B" stroke-miterlimit="10" stroke-dasharray="2 2"/>
<path d="M90.7715 56.5433L116.555 35.5979L135.987 47.1085L111.531 67.6765" stroke="#1D1D1B" stroke-miterlimit="10" stroke-dasharray="2 2"/>
<path d="M98.148 169.943V181.475L36.4492 145.361V54.1375" stroke="#0072BA" stroke-miterlimit="10"/>
<path d="M98.1484 91.2258V181.473L163.709 145.628V54.6129" stroke="#0072BA" stroke-miterlimit="10"/>
<path d="M98.1478 91.0313L36 54.2922L100.213 18L163.708 54.2922L98.1478 91.0313Z" stroke="#0072BA" stroke-miterlimit="10"/>
</svg>
