<svg width="200" height="200" viewBox="0 0 200 200" fill="none" xmlns="http://www.w3.org/2000/svg">
<path d="M100 119.41V176.121L29 137.272V80.5614" stroke="#0072BA" stroke-miterlimit="10"/>
<path d="M100 119.41V176.121L171 137.272V80.5614" stroke="#0072BA" stroke-miterlimit="10"/>
<path d="M100 120.453L135.426 67.4633L171 80.5618L70.826 24L29 80.5618" stroke="#0072BA" stroke-miterlimit="10"/>
<path d="M135.425 67.4633L70.8257 24" stroke="#0072BA" stroke-miterlimit="10"/>
<path d="M63.3834 135.188L47.9033 126.853" stroke="#1D1D1B" stroke-miterlimit="10" stroke-dasharray="2 2"/>
<path d="M72.7612 140.844L131.556 174.334" stroke="#1D1D1B" stroke-miterlimit="10" stroke-dasharray="2 2"/>
<path d="M68.7427 134.593V116.88" stroke="#1D1D1B" stroke-miterlimit="10" stroke-dasharray="2 2"/>
<path d="M68.7416 140.994C70.3857 140.994 71.7185 139.661 71.7185 138.017C71.7185 136.373 70.3857 135.04 68.7416 135.04C67.0975 135.04 65.7646 136.373 65.7646 138.017C65.7646 139.661 67.0975 140.994 68.7416 140.994Z" stroke="#1D1D1B" stroke-miterlimit="10"/>
<path d="M80.2022 116.582L59.959 104.674" stroke="#1D1D1B" stroke-miterlimit="10" stroke-dasharray="2 2"/>
<path d="M118.455 139.207L89.728 122.239" stroke="#1D1D1B" stroke-miterlimit="10" stroke-dasharray="2 2"/>
<path d="M85.5605 115.987V61.2115" stroke="#1D1D1B" stroke-miterlimit="10" stroke-dasharray="2 2"/>
<path d="M85.5609 122.387C87.205 122.387 88.5379 121.054 88.5379 119.41C88.5379 117.766 87.205 116.433 85.5609 116.433C83.9168 116.433 82.584 117.766 82.584 119.41C82.584 121.054 83.9168 122.387 85.5609 122.387Z" stroke="#1D1D1B" stroke-miterlimit="10"/>
<path d="M119.649 121.197L93.0059 105.568" stroke="#1D1D1B" stroke-miterlimit="10" stroke-dasharray="3 3"/>
<path d="M162.369 146.352L129.176 126.854" stroke="#1D1D1B" stroke-miterlimit="10" stroke-dasharray="2 2"/>
<path d="M125.156 120.601V99.7622" stroke="#1D1D1B" stroke-miterlimit="10" stroke-dasharray="2 2"/>
<path d="M125.156 127.001C126.8 127.001 128.133 125.668 128.133 124.024C128.133 122.38 126.8 121.047 125.156 121.047C123.512 121.047 122.179 122.38 122.179 124.024C122.179 125.668 123.512 127.001 125.156 127.001Z" stroke="#1D1D1B" stroke-miterlimit="10"/>
</svg>
