<svg width="169" height="50" viewBox="0 0 169 50" fill="none" xmlns="http://www.w3.org/2000/svg">
<path d="M64.6997 31.1621H65.2279V35.1234L68.0448 31.1621H68.5729V35.9156H68.0448V31.9544L65.2279 35.9156H64.6997V31.1621Z" fill="#1D1D1B"/>
<path d="M69.8076 32.4821H70.3358V33.9785H72.3604V32.4821H72.8886V36.0032H72.3604V34.5067H70.3358V36.0032H69.8076V32.4821Z" fill="#1D1D1B"/>
<path d="M75.0002 33.8914L73.6798 32.3949H74.296L76.0566 34.4195V32.3949H76.5847V34.4195L78.3453 32.3949H78.9615L77.6411 33.8914L79.0495 35.916H78.4333L77.289 34.3315L76.5847 35.1238V36.004H76.0566V35.1238L75.3524 34.3315L74.208 36.004H73.5918L75.0002 33.8914Z" fill="#1D1D1B"/>
<path d="M79.314 34.1553C79.314 33.099 80.0182 32.3068 80.9865 32.3068C82.0428 32.3068 82.659 33.099 82.659 34.1553C82.659 34.2434 82.659 34.2434 82.659 34.3314H79.9302C80.0182 35.0356 80.5464 35.4758 81.1625 35.4758C81.6027 35.4758 81.9548 35.2997 82.3069 34.9476L82.659 35.2117C82.3069 35.5638 81.8668 35.8279 81.2506 35.8279C80.1062 36.0039 79.314 35.2997 79.314 34.1553ZM82.1309 33.9793C82.0428 33.3631 81.6907 32.8349 80.9865 32.8349C80.3703 32.8349 79.9302 33.3631 79.8421 33.9793H82.1309Z" fill="#1D1D1B"/>
<path d="M83.5386 32.4821H84.0667V33.9785H86.0914V32.4821H86.6195V36.0032H86.0914V34.5067H84.0667V36.0032H83.5386V32.4821Z" fill="#1D1D1B"/>
<path d="M87.5879 34.1553C87.5879 33.099 88.2921 32.3068 89.2604 32.3068C90.3168 32.3068 90.933 33.099 90.933 34.1553C90.933 34.2434 90.933 34.2434 90.933 34.3314H88.2041C88.2921 35.0356 88.8203 35.4758 89.4365 35.4758C89.8766 35.4758 90.2287 35.2997 90.5808 34.9476L90.933 35.2117C90.5808 35.5638 90.1407 35.8279 89.5245 35.8279C88.3801 36.0039 87.5879 35.2997 87.5879 34.1553ZM90.3168 33.9793C90.2287 33.3631 89.8766 32.8349 89.1724 32.8349C88.5562 32.8349 88.1161 33.3631 88.028 33.9793H90.3168Z" fill="#1D1D1B"/>
<path d="M91.814 32.4829H92.3421V33.1871C92.6062 32.747 93.0464 32.3949 93.6625 32.3949C94.5428 32.3949 95.3351 33.0991 95.3351 34.2435C95.3351 35.3878 94.5428 36.0921 93.6625 36.0921C93.0464 36.0921 92.6062 35.74 92.3421 35.3878V37.1484H91.814V32.4829ZM94.8069 34.1555C94.8069 33.3632 94.2787 32.835 93.5745 32.835C92.9583 32.835 92.3421 33.3632 92.3421 34.1555C92.3421 34.9477 92.9583 35.4759 93.5745 35.4759C94.1907 35.5639 94.8069 35.0357 94.8069 34.1555Z" fill="#1D1D1B"/>
<path d="M96.3037 32.4821H96.8319V33.9785H98.8565V32.4821H99.3847V36.0032H98.8565V34.5067H96.8319V36.0032H96.3037V32.4821Z" fill="#1D1D1B"/>
<path d="M100.265 34.1553C100.265 33.187 101.057 32.3068 102.113 32.3068C103.17 32.3068 103.962 33.099 103.962 34.1553C103.962 35.1237 103.17 36.0039 102.113 36.0039C101.057 36.0039 100.265 35.2117 100.265 34.1553ZM103.346 34.1553C103.346 33.3631 102.817 32.7469 102.025 32.7469C101.233 32.7469 100.705 33.3631 100.705 34.1553C100.705 34.9476 101.233 35.4758 102.025 35.4758C102.817 35.5638 103.346 34.9476 103.346 34.1553Z" fill="#1D1D1B"/>
<path d="M104.667 33.627H106.515V34.1551H104.667V33.627Z" fill="#1D1D1B"/>
<path d="M107.395 34.1553C107.395 33.187 108.187 32.3068 109.155 32.3068C109.859 32.3068 110.211 32.5708 110.564 32.923L110.211 33.2751C109.947 33.011 109.595 32.7469 109.155 32.7469C108.451 32.7469 107.923 33.3631 107.923 34.1553C107.923 34.9476 108.451 35.4758 109.243 35.4758C109.683 35.4758 110.035 35.2117 110.299 34.9476L110.652 35.2997C110.299 35.6518 109.859 36.0039 109.243 36.0039C108.187 36.0039 107.395 35.2117 107.395 34.1553Z" fill="#1D1D1B"/>
<path d="M112.324 32.9222H111.092V32.4821H114.085V32.9222H112.852V35.9151H112.324V32.9222Z" fill="#1D1D1B"/>
<path d="M114.876 32.4829H115.405V33.1871C115.669 32.747 116.109 32.3949 116.725 32.3949C117.605 32.3949 118.398 33.0991 118.398 34.2435C118.398 35.3878 117.605 36.0921 116.725 36.0921C116.109 36.0921 115.669 35.74 115.405 35.3878V37.1484H114.876V32.4829ZM117.869 34.1555C117.869 33.3632 117.341 32.835 116.637 32.835C116.021 32.835 115.405 33.3632 115.405 34.1555C115.405 34.9477 116.021 35.4759 116.637 35.4759C117.253 35.5639 117.869 35.0357 117.869 34.1555Z" fill="#1D1D1B"/>
<path d="M119.103 34.1553C119.103 33.187 119.895 32.3068 120.952 32.3068C122.008 32.3068 122.8 33.099 122.8 34.1553C122.8 35.1237 122.008 36.0039 120.952 36.0039C119.895 36.0039 119.103 35.2117 119.103 34.1553ZM122.184 34.1553C122.184 33.3631 121.656 32.7469 120.864 32.7469C120.071 32.7469 119.543 33.3631 119.543 34.1553C119.543 34.9476 120.071 35.4758 120.864 35.4758C121.656 35.5638 122.184 34.9476 122.184 34.1553Z" fill="#1D1D1B"/>
<path d="M123.679 32.4821H124.207V35.2109L126.32 32.4821H126.848V36.0032H126.32V33.2743L124.207 36.0032H123.679V32.4821Z" fill="#1D1D1B"/>
<path d="M128.785 32.9222H127.553V32.4821H130.546V32.9222H129.313V35.9151H128.785V32.9222Z" fill="#1D1D1B"/>
<path d="M130.987 34.1553C130.987 33.099 131.692 32.3068 132.66 32.3068C133.716 32.3068 134.332 33.099 134.332 34.1553C134.332 34.2434 134.332 34.2434 134.332 34.3314H131.603C131.692 35.0356 132.22 35.4758 132.836 35.4758C133.276 35.4758 133.628 35.2997 133.98 34.9476L134.332 35.2117C133.98 35.5638 133.54 35.8279 132.924 35.8279C131.78 36.0039 130.987 35.2997 130.987 34.1553ZM133.716 33.9793C133.628 33.3631 133.276 32.8349 132.572 32.8349C131.956 32.8349 131.515 33.3631 131.427 33.9793H133.716Z" fill="#1D1D1B"/>
<path d="M134.595 35.9151L134.683 35.475C134.771 35.475 134.859 35.563 134.947 35.563C135.387 35.563 135.74 35.387 135.74 32.7461V32.4821H138.204V36.0032H137.676V33.0102H136.18V33.0982C136.18 35.8271 135.652 36.0912 135.035 36.0912C134.947 36.0032 134.683 36.0032 134.595 35.9151Z" fill="#1D1D1B"/>
<path d="M139.349 32.4821H139.877V33.8025H140.846C141.638 33.8025 142.254 34.1546 142.254 34.8588C142.254 35.563 141.726 36.0032 140.934 36.0032H139.437V32.4821H139.349ZM140.758 35.475C141.286 35.475 141.638 35.2109 141.638 34.7708C141.638 34.3306 141.286 34.1546 140.758 34.1546H139.789V35.475H140.758Z" fill="#1D1D1B"/>
<path d="M142.957 32.4821H143.485V33.9785H145.51V32.4821H146.038V36.0032H145.51V34.5067H143.485V36.0032H142.957V32.4821Z" fill="#1D1D1B"/>
<path d="M146.919 34.9468C146.919 34.1546 147.536 33.8025 148.416 33.8025C148.856 33.8025 149.208 33.8905 149.472 33.9785V33.8905C149.472 33.2743 149.12 32.9222 148.416 32.9222C147.976 32.9222 147.712 33.0102 147.36 33.1863L147.184 32.7461C147.536 32.5701 147.976 32.4821 148.416 32.4821C148.944 32.4821 149.296 32.6581 149.56 32.8342C149.824 33.0982 149.912 33.4504 149.912 33.8905V36.0032H149.384V35.475C149.12 35.8271 148.768 36.0912 148.152 36.0912C147.536 36.0032 146.919 35.6511 146.919 34.9468ZM149.472 34.6828V34.3306C149.208 34.2426 148.856 34.1546 148.416 34.1546C147.8 34.1546 147.36 34.4187 147.36 34.8588C147.36 35.2989 147.8 35.563 148.24 35.563C148.944 35.563 149.472 35.2109 149.472 34.6828Z" fill="#1D1D1B"/>
<path d="M151.849 34.5947C151.321 34.5067 150.881 34.0666 150.881 33.5384C150.881 32.9222 151.409 32.4821 152.201 32.4821H153.873V36.0032H153.345V34.7708H152.377C152.025 35.2109 151.761 35.6511 151.409 36.0032H150.792L151.849 34.5947ZM153.345 34.2426V32.9222H152.289C151.761 32.9222 151.497 33.1863 151.497 33.5384C151.497 33.9785 151.849 34.2426 152.377 34.2426H153.345Z" fill="#1D1D1B"/>
<path d="M64.6133 39.3485H65.1414V41.3732L67.0781 39.3485H67.6943L66.1978 40.845L67.6943 42.7816H67.0781L65.8457 41.1971L65.1414 42.0774V42.9577H64.6133V39.3485Z" fill="#1D1D1B"/>
<path d="M68.0469 41.1091C68.0469 40.1408 68.8391 39.2605 69.8955 39.2605C70.9518 39.2605 71.744 40.0528 71.744 41.1091C71.744 42.0774 70.9518 42.9577 69.8955 42.9577C68.7511 42.9577 68.0469 42.1654 68.0469 41.1091ZM71.1278 41.1091C71.1278 40.3168 70.5997 39.7006 69.8074 39.7006C69.0152 39.7006 68.487 40.3168 68.487 41.1091C68.487 41.9013 69.0152 42.4295 69.8074 42.4295C70.5997 42.5175 71.1278 41.9013 71.1278 41.1091Z" fill="#1D1D1B"/>
<path d="M72.6237 39.3485H73.0638L74.3842 41.1971L75.7046 39.3485H76.2328V42.8696H75.7046V40.2288L74.3842 41.9893L73.0638 40.2288V42.8696H72.5356V39.3485H72.6237Z" fill="#1D1D1B"/>
<path d="M77.3776 39.3485H80.3705V42.8696H79.8424V39.8767H77.8177V42.8696H77.2896V39.3485H77.3776Z" fill="#1D1D1B"/>
<path d="M81.2505 41.8133C81.2505 41.021 81.8667 40.6689 82.747 40.6689C83.1871 40.6689 83.5392 40.757 83.8033 40.845V40.757C83.8033 40.1408 83.4512 39.7886 82.747 39.7886C82.3068 39.7886 82.0427 39.8767 81.6906 40.0527L81.6026 39.6126C81.9547 39.4365 82.3948 39.3485 82.835 39.3485C83.3632 39.3485 83.7153 39.5246 83.9793 39.7006C84.2434 39.9647 84.3315 40.3168 84.3315 40.757V42.8696H83.8033V42.3415C83.5392 42.6936 83.1871 42.9577 82.5709 42.9577C81.9547 42.9577 81.2505 42.6055 81.2505 41.8133ZM83.8913 41.6372V41.2851C83.6272 41.1971 83.2751 41.1091 82.835 41.1091C82.2188 41.1091 81.7787 41.3732 81.7787 41.8133C81.7787 42.2534 82.2188 42.5175 82.6589 42.5175C83.3632 42.5175 83.8913 42.1654 83.8913 41.6372Z" fill="#1D1D1B"/>
<path d="M85.4761 39.3485H86.0042V40.845H88.0289V39.3485H88.557V42.8696H88.0289V41.3732H86.0042V42.8696H85.4761V39.3485Z" fill="#1D1D1B"/>
<path d="M89.7012 39.3485H90.2293V42.0774L92.342 39.3485H92.8702V42.8696H92.342V40.1408L90.2293 42.8696H89.7012V39.3485Z" fill="#1D1D1B"/>
<path d="M94.718 41.5502C94.1898 41.4621 93.7496 41.022 93.7496 40.4938C93.7496 39.8776 94.2778 39.4375 95.0701 39.4375H96.7426V42.9586H96.2144V41.7262H95.2461C94.894 42.1664 94.6299 42.6065 94.2778 42.9586H93.6616L94.718 41.5502ZM96.2144 41.1981V39.8776H95.0701C94.5419 39.8776 94.2778 40.1417 94.2778 40.4938C94.2778 40.934 94.6299 41.1981 95.1581 41.1981H96.2144Z" fill="#1D1D1B"/>
<path d="M64.6133 7.30713H67.6062V25.3528H64.6133V7.30713Z" fill="#1D1D1B"/>
<path d="M71.5674 7.3938H74.7364V10.2107H71.5674V7.3938ZM71.6554 12.2353H74.6484V25.2635H71.6554V12.2353Z" fill="#1D1D1B"/>
<path d="M78.521 12.2364H81.5139V14.261C82.3942 13.0286 83.5386 11.9723 85.5632 11.9723C88.4681 11.9723 90.2287 13.9089 90.2287 16.9899V25.2645H87.2358V17.8702C87.2358 15.8455 86.1794 14.7012 84.4189 14.7012C82.6583 14.7012 81.5139 15.9335 81.5139 17.9582V25.3525H78.521V12.2364Z" fill="#1D1D1B"/>
<path d="M93.837 7.30664H96.83V18.046L102.2 12.2362H105.809L100.615 17.5179L105.985 25.2643H102.552L98.5906 19.6305L96.742 21.5671V25.2643H93.749V7.30664H93.837Z" fill="#1D1D1B"/>
<path d="M107.218 16.2849H114.524V19.1898H107.218V16.2849Z" fill="#1D1D1B"/>
<path d="M118.486 21.7421V14.8759H116.813V12.3231H118.486V8.71399H121.479V12.3231H125V14.8759H121.479V21.302C121.479 22.4463 122.095 22.9745 123.063 22.9745C123.768 22.9745 124.296 22.7984 124.912 22.5344V24.9991C124.208 25.4393 123.328 25.7034 122.183 25.7034C119.982 25.5273 118.486 24.559 118.486 21.7421Z" fill="#1D1D1B"/>
<path d="M126.849 18.8386C126.849 15.1414 129.489 12.0604 133.187 12.0604C137.324 12.0604 139.437 15.3175 139.437 19.1027C139.437 19.2787 139.437 19.8069 139.349 19.9829H129.754C130.106 22.0956 131.602 23.328 133.539 23.328C135.035 23.328 136.004 22.7998 137.06 21.7435L138.82 23.328C137.588 24.8245 135.916 25.7928 133.451 25.7928C129.754 25.6167 126.849 22.8878 126.849 18.8386ZM136.532 17.8703C136.356 15.9336 135.211 14.4372 133.187 14.4372C131.338 14.4372 130.106 15.8456 129.842 17.8703H136.532Z" fill="#1D1D1B"/>
<path d="M141.813 18.8386C141.813 15.1414 144.718 12.0604 148.592 12.0604C151.056 12.0604 152.553 12.9407 153.785 14.3491L151.937 16.3738C151.056 15.4055 150.088 14.7013 148.592 14.7013C146.391 14.7013 144.806 16.5498 144.806 18.9266C144.806 21.3033 146.391 23.1519 148.68 23.1519C150.088 23.1519 151.144 22.4477 152.025 21.4794L153.785 23.24C152.465 24.6484 150.968 25.7047 148.416 25.7047C144.63 25.6167 141.813 22.5357 141.813 18.8386Z" fill="#1D1D1B"/>
<path d="M156.602 7.30664H159.595V14.3489C160.475 13.1165 161.619 12.0601 163.644 12.0601C166.549 12.0601 168.309 13.9968 168.309 17.0777V25.3523H165.316V17.958C165.316 15.9334 164.26 14.789 162.499 14.789C160.739 14.789 159.595 16.0214 159.595 18.046V25.4404H156.602V7.30664Z" fill="#1D1D1B"/>
<path d="M12.3239 0.000732422L0 7.13099L12.3239 14.2612V28.6098L24.7358 21.3915V7.13099L12.3239 0.000732422Z" fill="#0072BA"/>
<path d="M12.3239 0.000732422L0 7.13099L12.3239 14.2612L24.7358 7.13099L12.3239 0.000732422Z" fill="#00B8ED"/>
<path d="M24.7355 21.3916L12.4116 28.6099L24.7355 35.7401V50.0006L37.1474 42.8704V28.6099L24.7355 21.3916Z" fill="#0072BA"/>
<path d="M24.7357 21.3911L12.3237 28.6094L24.7357 35.7396L37.1476 28.6094L24.7357 21.3911Z" fill="#00B8ED"/>
<path d="M37.1468 0L24.7349 7.13025L37.1468 14.2605V28.609L49.4707 21.3908V7.13025L37.1468 0Z" fill="#0072BA"/>
<path d="M37.1468 0L24.7349 7.13025L37.1468 14.2605L49.4707 7.13025L37.1468 0Z" fill="#00B8ED"/>
</svg>
